<?xml version="1.0" encoding="UTF-8"?>
<svg id="Capa_2" data-name="Capa 2" xmlns="http://www.w3.org/2000/svg" viewBox="0 0 308.31 57.88">
  <defs>
    <style>
      .cls-1 {
        fill: #fff;
      }
    </style>
  </defs>
  <g id="Capa_1-2" data-name="Capa 1">
    <g>
      <g>
        <path class="cls-1" d="M23.21,10.8l13.08,36.29h-9.2l-10.65-31.69h3.41l-10.7,31.69H0L13.13,10.8h10.08ZM7.81,33.91h19.85l2.22,6.77H5.64l2.17-6.77Z"/>
        <path class="cls-1" d="M39.09,38.15V8.84h8.74v28.9c0,.76.23,1.33.7,1.71.47.38,1.01.57,1.63.57.41,0,.81-.07,1.19-.21l1.4,6.72c-1.38.62-2.93.93-4.65.93-1.45,0-2.86-.29-4.24-.88-1.38-.59-2.52-1.56-3.41-2.92-.9-1.36-1.34-3.2-1.34-5.51Z"/>
        <path class="cls-1" d="M67.73,47.46c-3.17,0-5.6-.87-7.29-2.61-1.69-1.74-2.53-4.27-2.53-7.57v-11.94h-4.6v-7.08h19.08v7.08h-5.74v12.05c0,.83.27,1.47.8,1.94.53.47,1.18.7,1.94.7.34,0,.66-.04.96-.13.29-.09.58-.21.85-.39l2.17,6.41c-.83.45-1.7.82-2.61,1.11-.91.29-1.92.44-3.02.44ZM55.58,20.57v-2.33c.76,0,1.38-.24,1.86-.72.48-.48.72-1.1.72-1.86v-4.45h8.48v3.1c0,.48-.12,1.01-.36,1.58-.24.57-.61,1.07-1.11,1.5-.5.43-1.09.72-1.78.85l-7.81,2.33Z"/>
        <path class="cls-1" d="M91.56,47.46c-2.1,0-4.11-.33-6.02-.98-1.91-.65-3.6-1.61-5.07-2.87-1.47-1.26-2.62-2.78-3.46-4.58-.84-1.79-1.27-3.84-1.27-6.15s.4-4.22,1.21-6.05c.81-1.83,1.91-3.41,3.31-4.76,1.4-1.34,3.02-2.38,4.86-3.1,1.84-.72,3.8-1.09,5.87-1.09,1.69,0,3.3.22,4.83.67,1.53.45,2.91,1.1,4.14,1.96,1.22.86,2.19,1.88,2.9,3.05.71,1.17,1.06,2.48,1.06,3.93,0,1.83-.52,3.34-1.55,4.55-1.03,1.21-2.39,2.15-4.06,2.84-1.67.69-3.5,1.18-5.48,1.47-1.98.29-3.94.42-5.87.39-.24,0-.53,0-.85-.03-.33-.02-.63-.03-.9-.05-.28-.02-.48-.03-.62-.03.21.79.65,1.51,1.32,2.15.67.64,1.53,1.15,2.56,1.53,1.03.38,2.1.57,3.21.57s2.16-.19,3.18-.57c1.02-.38,1.94-.86,2.77-1.45.83-.59,1.53-1.24,2.12-1.96l5.58,4.39c-1.03,1.38-2.29,2.53-3.77,3.44-1.48.91-3.08,1.59-4.78,2.04-1.71.45-3.44.67-5.2.67ZM87.01,31.02c.93,0,1.9-.05,2.9-.16,1-.1,1.92-.28,2.77-.54.84-.26,1.53-.62,2.07-1.09.53-.47.8-1.06.8-1.78,0-.59-.21-1.1-.62-1.55-.41-.45-.97-.79-1.65-1.03-.69-.24-1.43-.36-2.22-.36-1.38,0-2.58.33-3.62.98-1.03.66-1.83,1.47-2.38,2.46-.55.98-.86,1.97-.93,2.97.31.03.73.06,1.27.08.53.02,1.08.03,1.63.03Z"/>
        <path class="cls-1" d="M109.19,47.09v-28.85h8.74v28.85h-8.74ZM116.58,34.69l1.34-9.46c.62-2.24,1.71-4.01,3.26-5.3,1.55-1.29,3.53-1.94,5.95-1.94v9.1c-.38-.07-.74-.12-1.09-.16-.34-.03-.69-.05-1.03-.05-1.28,0-2.45.3-3.52.9-1.07.6-1.93,1.48-2.58,2.64-.66,1.16-.98,2.58-.98,4.27h-1.34Z"/>
        <path class="cls-1" d="M131.06,47.09v-28.85h8.74v6.15c.41-1.34,1.09-2.5,2.02-3.46.93-.96,2.01-1.71,3.23-2.25,1.22-.53,2.49-.8,3.8-.8,2.21,0,4.12.5,5.74,1.5,1.62,1,2.88,2.41,3.77,4.24.9,1.83,1.34,4,1.34,6.51v16.96h-8.74v-15.56c0-1.96-.5-3.52-1.5-4.65-1-1.14-2.34-1.71-4.03-1.71-1.14,0-2.13.3-2.97.9-.84.6-1.5,1.42-1.96,2.46-.47,1.03-.7,2.21-.7,3.52v15.04h-8.74Z"/>
        <path class="cls-1" d="M176.45,47.46c-2.34,0-4.33-.52-5.97-1.55-1.64-1.03-2.89-2.48-3.75-4.34-.86-1.86-1.29-4.03-1.29-6.51v-16.8h8.69v15.51c0,2,.51,3.55,1.53,4.65,1.02,1.1,2.37,1.65,4.06,1.65,1.17,0,2.17-.29,3-.88.83-.59,1.46-1.4,1.91-2.43.45-1.03.67-2.21.67-3.52l1.19,1.5c-.1,2.96-.61,5.38-1.53,7.24-.91,1.86-2.11,3.24-3.59,4.14-1.48.9-3.12,1.34-4.91,1.34ZM185.29,42.7v-24.45h8.74v28.85h-4.34c-1.38,0-2.46-.39-3.23-1.16s-1.16-1.85-1.16-3.23Z"/>
        <path class="cls-1" d="M200.24,47.09v-28.85h8.74v6.15c.41-1.34,1.09-2.5,2.02-3.46.93-.96,2.01-1.71,3.23-2.25,1.22-.53,2.49-.8,3.8-.8,2.21,0,4.12.5,5.74,1.5,1.62,1,2.88,2.41,3.77,4.24.9,1.83,1.34,4,1.34,6.51v16.96h-8.74v-15.56c0-1.96-.5-3.52-1.5-4.65-1-1.14-2.34-1.71-4.03-1.71-1.14,0-2.13.3-2.97.9-.84.6-1.5,1.42-1.96,2.46-.47,1.03-.7,2.21-.7,3.52v15.04h-8.74Z"/>
      </g>
      <path class="cls-1" d="M306.73,17.28l-15.7-15.7c-.98-.98-2.32-1.58-3.81-1.58h-15.7c-1.49,0-2.84.6-3.81,1.58h0l-15.7,15.7c-.98.98-1.58,2.32-1.58,3.81v31.4c0,2.98,2.41,5.39,5.39,5.39.65,0,1.28-.12,1.85-.33h0s8.78-3.21,8.78-3.21l10.13-3.7,8.75-3.2h.03c.58-.22,1.2-.34,1.85-.34,1.49,0,2.84.6,3.81,1.58h0s8.07,7.63,8.07,7.63h0c.98.97,2.32,1.58,3.81,1.58,2.98,0,5.39-2.41,5.39-5.39v-31.4c0-1.49-.6-2.84-1.58-3.81ZM275.37,40.56l-.08.08h-.01c-.97.96-2.3,1.54-3.76,1.54-2.98,0-5.39-2.41-5.39-5.39v-15.7c0-2.98,2.41-5.39,5.39-5.39h15.7c2.98,0,5.39,2.41,5.39,5.39,0,1.56-.7,3.08-1.89,4.09l-15.35,15.38Z"/>
    </g>
  </g>
</svg>