<?xml version="1.0" encoding="UTF-8" standalone="no"?>
<svg
   width="256"
   height="256"
   viewBox="0 0 256 256"
   version="1.1"
   id="svg1"
   xmlns="http://www.w3.org/2000/svg"
   xmlns:svg="http://www.w3.org/2000/svg">
  <defs
     id="defs1" />
  <!-- Background circle -->
  <circle
     cx="128"
     cy="128"
     r="110"
     fill="#004646"
     id="circle1" />
  <!-- Rounded triangle -->
  <path
     d="m 83.902145,182.71792 c 0,0 -27.780611,-4.73633 -6.150891,-33.88575 l 70.876386,-79.5734 c 9.89575,-10.143488 30.4878,-9.472689 31.84836,3.353989 l 1.3895,70.405821 c 0.53291,27.0023 5.90897,40.76527 -10.8054,40.59374 z"
     fill="#1ee6b5"
     id="path1"
     style="fill:#1ee6b5;fill-opacity:1;stroke-width:0.995784" />
  <path
     style="fill:#1ee6b5;fill-opacity:1;stroke:#ffffff;stroke-width:0.219554"
     d="M 123.38937,237.76674 C 92.019942,236.48833 62.368169,221.54857 42.576089,197.04974 29.146203,180.4261 21.04861,160.74746 18.634771,138.86792 18.096103,133.98533 18.088606,122.07744 18.621154,117.24185 22.054882,86.063285 37.155557,59.106692 61.610381,40.500706 89.454842,19.315781 125.85099,12.714524 159.47661,22.750476 c 24.65866,7.359659 46.11394,23.327195 60.29995,44.876677 9.67854,14.70235 15.63093,31.487232 17.59476,49.614697 0.29454,2.71885 0.39246,5.40284 0.39246,10.75815 0,5.35531 -0.0979,8.0393 -0.39246,10.75815 -2.2239,20.52807 -9.51753,39.20468 -21.57623,55.24967 -16.84884,22.4186 -41.76428,37.59896 -69.46233,42.32166 -5.44885,0.92906 -8.80209,1.22996 -17.01544,1.52688 -1.08679,0.0393 -3.75437,-0.001 -5.92795,-0.0896 z m 52.56417,-54.53482 c 3.74524,-0.94436 5.74364,-3.15966 6.74665,-7.47892 0.55687,-2.39807 0.52125,-9.83459 -0.0947,-19.75986 -0.59159,-9.5333 -0.60131,-9.88695 -1.37325,-49.94854 -0.42062,-21.828535 -0.73651,-34.088289 -0.89666,-34.799317 -1.1681,-5.185901 -6.11091,-8.611893 -13.03545,-9.035213 -6.23048,-0.380889 -13.30318,1.998528 -17.59968,5.920936 -0.68577,0.62606 -17.21084,19.053458 -36.72239,40.949774 -31.040913,34.83486 -35.717311,40.17297 -37.409723,42.70326 -3.141797,4.69723 -5.199262,9.32422 -5.877168,13.21704 -0.369456,2.12157 -0.159372,5.82549 0.422207,7.44372 1.580629,4.39805 5.274,7.61743 11.121575,9.69428 2.076277,0.73742 -3.545569,0.59966 48.411669,1.18624 39.81029,0.44945 44.18899,0.44062 46.30688,-0.0934 z"
     id="path13" />
  <path
     style="fill:#004646;fill-opacity:1;stroke:#ffffff;stroke-width:0.219554"
     d="m 117.90051,182.99204 c -33.144126,-0.36088 -34.525663,-0.40105 -36.463383,-1.06011 -9.905425,-3.36905 -13.736425,-10.52972 -10.70592,-20.01083 0.765101,-2.39366 2.827321,-6.60995 4.402816,-9.00172 2.436123,-3.6983 4.362846,-5.89986 47.258077,-53.999311 22.71293,-25.46856 27.13264,-30.339711 28.60197,-31.523424 2.40537,-1.937809 6.30826,-3.673105 10.15859,-4.516697 2.66311,-0.583476 7.3513,-0.536905 9.73273,0.09668 4.47234,1.189882 7.71247,3.831632 8.92918,7.280147 0.44199,1.252734 0.62823,6.848953 1.20561,36.226925 0.79084,40.23917 0.85647,42.4907 1.54227,52.91253 0.32401,4.92394 0.26803,14.54047 -0.0946,16.24699 -0.89713,4.22208 -3.30686,6.73525 -7.15835,7.46567 -1.48931,0.28244 -25.16254,0.23426 -57.409,-0.11685 z"
     id="path14" />
</svg>
