<svg width="198.48508" height="73.972252" viewBox="17.422001 17.233192 198.48508 73.972252" fill="none" xmlns="http://www.w3.org/2000/svg">
  <path d="m 183.58516,90.344278 c -11.19843,-2.09964 -12.66973,-3.22309 -14.04294,-10.722844 -0.63986,-3.494626 -1.05934,-6.470378 -0.93218,-6.612781 0.12717,-0.142404 3.02638,1.182663 6.44269,2.944592 5.26996,2.717927 7.54984,3.267496 15.04102,3.625654 7.97313,0.3812 9.03484,0.216836 10.94627,-1.694593 4.42305,-4.423052 2.23344,-6.116575 -10.53687,-8.149567 -5.96552,-0.94969 -12.52404,-2.428735 -14.57449,-3.286765 -4.81397,-2.014443 -7.76442,-6.832956 -7.76442,-12.680406 0,-9.658674 6.80257,-14.898406 20.44427,-15.747351 8.28451,-0.515559 18.07778,0.911826 20.86392,3.040948 0.97515,0.745199 1.84028,3.603529 2.26297,7.47673 l 0.68429,6.270327 -5.33925,-2.770327 c -4.1562,-2.156489 -7.03884,-2.847957 -13.00969,-3.120682 -8.34452,-0.381144 -11.91399,0.765295 -11.91399,3.826522 0,2.632278 0.73112,2.924889 10.18716,4.077126 16.39662,1.997963 21.30304,4.497167 23.7314,12.088164 1.51263,4.728451 -0.10155,11.497868 -3.65565,15.330812 -5.61174,6.052001 -16.65024,8.388921 -28.83451,6.104441 z M 18.157137,89.017568 c 2.08e-4,-0.4125 4.741779,-11.325 10.536824,-24.25 5.795045,-12.925 12.602652,-28.1125 15.128017,-33.75 l 4.591572,-10.25 h 8.748459 8.74846 l 2.257385,5.25 c 1.241561,2.8875 8.046976,18.033813 15.123144,33.658474 7.076169,15.62466 12.865759,28.805356 12.865759,29.290446 0,0.48508 -3.69172,0.75127 -8.203827,0.59152 l -8.203828,-0.29044 -2.383652,-6.25 -2.383652,-6.25 H 57.221152 39.460506 l -1.634925,3.75 c -0.899209,2.0625 -2.081414,4.9875 -2.627123,6.5 -0.970231,2.68911 -1.169876,2.75 -9.01695,2.75 -4.413613,0 -8.02458,-0.3375 -8.024371,-0.75 z m 49.99962,-26.997556 c 0,-2.024965 -10.489428,-26.255968 -11.255482,-26.000617 -0.66756,0.22252 -11.736109,25.198444 -11.743161,26.498173 -7.47e-4,0.1375 5.173643,0.25 11.498643,0.25 6.325,0 11.5,-0.3364 11.5,-0.747556 z m 35.000003,2.247556 v -25.5 h 7.5 7.5 v 25.5 25.5 h -7.5 -7.5 z m 25,0 v -25.5 h 7.5 7.5 l 0.022,8.75 0.022,8.75 1.82174,-4 c 1.00196,-2.2 3.66519,-5.662043 5.9183,-7.693429 4.10022,-3.696724 10.0495,-7.30644 10.80191,-6.554036 0.57641,0.576491 2.41405,10.623605 2.41405,13.199024 0,1.793113 -1.19431,2.590298 -6.75,4.505542 -3.7125,1.27983 -8.4375,3.245912 -10.5,4.369072 l -3.75,2.042109 v 13.815859 13.815859 h -7.5 -7.5 z M 106.62204,32.862609 c -5.1481,-2.204543 -6.51722,-9.487958 -2.53242,-13.471881 3.02541,-3.024733 10.67168,-2.829758 13.23638,0.337518 2.31637,2.860591 2.35554,8.175669 0.0808,10.958952 -1.94176,2.375827 -7.63496,3.524215 -10.78472,2.175411 z" fill="#20E3B3"/>
</svg>
