<?xml version="1.0" encoding="UTF-8" standalone="no"?>
<svg
   id="Capa_2"
   data-name="Capa 2"
   viewBox="0 0 308.31 57.88"
   version="1.1"
   sodipodi:docname="alternun-black.svg"
   inkscape:version="1.4.3 (0d15f75042, 2025-12-25)"
   xmlns:inkscape="http://www.inkscape.org/namespaces/inkscape"
   xmlns:sodipodi="http://sodipodi.sourceforge.net/DTD/sodipodi-0.dtd"
   xmlns="http://www.w3.org/2000/svg"
   xmlns:svg="http://www.w3.org/2000/svg">
  <sodipodi:namedview
     id="namedview9"
     pagecolor="#ffffff"
     bordercolor="#000000"
     borderopacity="0.25"
     inkscape:showpageshadow="2"
     inkscape:pageopacity="0.0"
     inkscape:pagecheckerboard="0"
     inkscape:deskcolor="#d1d1d1"
     inkscape:zoom="5.5387853"
     inkscape:cx="149.76208"
     inkscape:cy="39.7199"
     inkscape:window-width="2560"
     inkscape:window-height="1368"
     inkscape:window-x="1080"
     inkscape:window-y="728"
     inkscape:window-maximized="1"
     inkscape:current-layer="Capa_1-2" />
  <defs
     id="defs1">
    <style
       id="style1">
      .cls-1 {
        fill: #fff;
      }
    </style>
  </defs>
  <g
     id="Capa_1-2"
     data-name="Capa 1">
    <g
       id="g9"
       style="fill:#000000">
      <g
         id="g8"
         style="fill:#000000">
        <path
           class="cls-1"
           d="m 23.21,10.8 13.08,36.29 h -9.2 L 16.44,15.4 h 3.41 L 9.15,47.09 H 0 L 13.13,10.8 Z M 7.81,33.91 h 19.85 l 2.22,6.77 H 5.64 Z"
           id="path1"
           style="fill:#000000" />
        <path
           class="cls-1"
           d="M 39.09,38.15 V 8.84 h 8.74 v 28.9 c 0,0.76 0.23,1.33 0.7,1.71 0.47,0.38 1.01,0.57 1.63,0.57 0.41,0 0.81,-0.07 1.19,-0.21 l 1.4,6.72 c -1.38,0.62 -2.93,0.93 -4.65,0.93 -1.45,0 -2.86,-0.29 -4.24,-0.88 -1.38,-0.59 -2.52,-1.56 -3.41,-2.92 -0.9,-1.36 -1.34,-3.2 -1.34,-5.51 z"
           id="path2"
           style="fill:#000000" />
        <path
           class="cls-1"
           d="m 67.73,47.46 c -3.17,0 -5.6,-0.87 -7.29,-2.61 -1.69,-1.74 -2.53,-4.27 -2.53,-7.57 V 25.34 h -4.6 v -7.08 h 19.08 v 7.08 h -5.74 v 12.05 c 0,0.83 0.27,1.47 0.8,1.94 0.53,0.47 1.18,0.7 1.94,0.7 0.34,0 0.66,-0.04 0.96,-0.13 0.29,-0.09 0.58,-0.21 0.85,-0.39 l 2.17,6.41 c -0.83,0.45 -1.7,0.82 -2.61,1.11 -0.91,0.29 -1.92,0.44 -3.02,0.44 z M 55.58,20.57 v -2.33 c 0.76,0 1.38,-0.24 1.86,-0.72 0.48,-0.48 0.72,-1.1 0.72,-1.86 v -4.45 h 8.48 v 3.1 c 0,0.48 -0.12,1.01 -0.36,1.58 -0.24,0.57 -0.61,1.07 -1.11,1.5 -0.5,0.43 -1.09,0.72 -1.78,0.85 z"
           id="path3"
           style="fill:#000000" />
        <path
           class="cls-1"
           d="m 91.56,47.46 c -2.1,0 -4.11,-0.33 -6.02,-0.98 -1.91,-0.65 -3.6,-1.61 -5.07,-2.87 -1.47,-1.26 -2.62,-2.78 -3.46,-4.58 -0.84,-1.79 -1.27,-3.84 -1.27,-6.15 0,-2.31 0.4,-4.22 1.21,-6.05 0.81,-1.83 1.91,-3.41 3.31,-4.76 1.4,-1.34 3.02,-2.38 4.86,-3.1 1.84,-0.72 3.8,-1.09 5.87,-1.09 1.69,0 3.3,0.22 4.83,0.67 1.53,0.45 2.91,1.1 4.14,1.96 1.22,0.86 2.19,1.88 2.9,3.05 0.71,1.17 1.06,2.48 1.06,3.93 0,1.83 -0.52,3.34 -1.55,4.55 -1.03,1.21 -2.39,2.15 -4.06,2.84 -1.67,0.69 -3.5,1.18 -5.48,1.47 -1.98,0.29 -3.94,0.42 -5.87,0.39 -0.24,0 -0.53,0 -0.85,-0.03 -0.33,-0.02 -0.63,-0.03 -0.9,-0.05 -0.28,-0.02 -0.48,-0.03 -0.62,-0.03 0.21,0.79 0.65,1.51 1.32,2.15 0.67,0.64 1.53,1.15 2.56,1.53 1.03,0.38 2.1,0.57 3.21,0.57 1.11,0 2.16,-0.19 3.18,-0.57 1.02,-0.38 1.94,-0.86 2.77,-1.45 0.83,-0.59 1.53,-1.24 2.12,-1.96 l 5.58,4.39 c -1.03,1.38 -2.29,2.53 -3.77,3.44 -1.48,0.91 -3.08,1.59 -4.78,2.04 -1.71,0.45 -3.44,0.67 -5.2,0.67 z M 87.01,31.02 c 0.93,0 1.9,-0.05 2.9,-0.16 1,-0.1 1.92,-0.28 2.77,-0.54 0.84,-0.26 1.53,-0.62 2.07,-1.09 0.53,-0.47 0.8,-1.06 0.8,-1.78 0,-0.59 -0.21,-1.1 -0.62,-1.55 -0.41,-0.45 -0.97,-0.79 -1.65,-1.03 -0.69,-0.24 -1.43,-0.36 -2.22,-0.36 -1.38,0 -2.58,0.33 -3.62,0.98 -1.03,0.66 -1.83,1.47 -2.38,2.46 -0.55,0.98 -0.86,1.97 -0.93,2.97 0.31,0.03 0.73,0.06 1.27,0.08 0.53,0.02 1.08,0.03 1.63,0.03 z"
           id="path4"
           style="fill:#000000" />
        <path
           class="cls-1"
           d="M 109.19,47.09 V 18.24 h 8.74 v 28.85 z m 7.39,-12.4 1.34,-9.46 c 0.62,-2.24 1.71,-4.01 3.26,-5.3 1.55,-1.29 3.53,-1.94 5.95,-1.94 v 9.1 c -0.38,-0.07 -0.74,-0.12 -1.09,-0.16 -0.34,-0.03 -0.69,-0.05 -1.03,-0.05 -1.28,0 -2.45,0.3 -3.52,0.9 -1.07,0.6 -1.93,1.48 -2.58,2.64 -0.66,1.16 -0.98,2.58 -0.98,4.27 h -1.34 z"
           id="path5"
           style="fill:#000000" />
        <path
           class="cls-1"
           d="M 131.06,47.09 V 18.24 h 8.74 v 6.15 c 0.41,-1.34 1.09,-2.5 2.02,-3.46 0.93,-0.96 2.01,-1.71 3.23,-2.25 1.22,-0.53 2.49,-0.8 3.8,-0.8 2.21,0 4.12,0.5 5.74,1.5 1.62,1 2.88,2.41 3.77,4.24 0.9,1.83 1.34,4 1.34,6.51 v 16.96 h -8.74 V 31.53 c 0,-1.96 -0.5,-3.52 -1.5,-4.65 -1,-1.14 -2.34,-1.71 -4.03,-1.71 -1.14,0 -2.13,0.3 -2.97,0.9 -0.84,0.6 -1.5,1.42 -1.96,2.46 -0.47,1.03 -0.7,2.21 -0.7,3.52 v 15.04 z"
           id="path6"
           style="fill:#000000" />
        <path
           class="cls-1"
           d="m 176.45,47.46 c -2.34,0 -4.33,-0.52 -5.97,-1.55 -1.64,-1.03 -2.89,-2.48 -3.75,-4.34 -0.86,-1.86 -1.29,-4.03 -1.29,-6.51 v -16.8 h 8.69 v 15.51 c 0,2 0.51,3.55 1.53,4.65 1.02,1.1 2.37,1.65 4.06,1.65 1.17,0 2.17,-0.29 3,-0.88 0.83,-0.59 1.46,-1.4 1.91,-2.43 0.45,-1.03 0.67,-2.21 0.67,-3.52 l 1.19,1.5 c -0.1,2.96 -0.61,5.38 -1.53,7.24 -0.91,1.86 -2.11,3.24 -3.59,4.14 -1.48,0.9 -3.12,1.34 -4.91,1.34 z m 8.84,-4.76 V 18.25 h 8.74 V 47.1 h -4.34 c -1.38,0 -2.46,-0.39 -3.23,-1.16 -0.77,-0.77 -1.16,-1.85 -1.16,-3.23 z"
           id="path7"
           style="fill:#000000" />
        <path
           class="cls-1"
           d="M 200.24,47.09 V 18.24 h 8.74 v 6.15 c 0.41,-1.34 1.09,-2.5 2.02,-3.46 0.93,-0.96 2.01,-1.71 3.23,-2.25 1.22,-0.53 2.49,-0.8 3.8,-0.8 2.21,0 4.12,0.5 5.74,1.5 1.62,1 2.88,2.41 3.77,4.24 0.9,1.83 1.34,4 1.34,6.51 v 16.96 h -8.74 V 31.53 c 0,-1.96 -0.5,-3.52 -1.5,-4.65 -1,-1.14 -2.34,-1.71 -4.03,-1.71 -1.14,0 -2.13,0.3 -2.97,0.9 -0.84,0.6 -1.5,1.42 -1.96,2.46 -0.47,1.03 -0.7,2.21 -0.7,3.52 v 15.04 z"
           id="path8"
           style="fill:#000000" />
      </g>
      <path
         class="cls-1"
         d="M 306.73,17.28 291.03,1.58 C 290.05,0.6 288.71,0 287.22,0 h -15.7 c -1.49,0 -2.84,0.6 -3.81,1.58 v 0 l -15.7,15.7 c -0.98,0.98 -1.58,2.32 -1.58,3.81 v 31.4 c 0,2.98 2.41,5.39 5.39,5.39 0.65,0 1.28,-0.12 1.85,-0.33 v 0 c 0,0 8.78,-3.21 8.78,-3.21 l 10.13,-3.7 8.75,-3.2 h 0.03 c 0.58,-0.22 1.2,-0.34 1.85,-0.34 1.49,0 2.84,0.6 3.81,1.58 v 0 c 0,0 8.07,7.63 8.07,7.63 v 0 c 0.98,0.97 2.32,1.58 3.81,1.58 2.98,0 5.39,-2.41 5.39,-5.39 V 21.1 c 0,-1.49 -0.6,-2.84 -1.58,-3.81 z m -31.36,23.28 -0.08,0.08 h -0.01 c -0.97,0.96 -2.3,1.54 -3.76,1.54 -2.98,0 -5.39,-2.41 -5.39,-5.39 v -15.7 c 0,-2.98 2.41,-5.39 5.39,-5.39 h 15.7 c 2.98,0 5.39,2.41 5.39,5.39 0,1.56 -0.7,3.08 -1.89,4.09 z"
         id="path9"
         style="fill:#000000" />
    </g>
  </g>
</svg>
