<?xml version="1.0" encoding="UTF-8"?>
<svg id="Layer_2" data-name="Layer 2" xmlns="http://www.w3.org/2000/svg" viewBox="0 0 526.73 183.4">
  <defs>
    <style>
      .cls-1 {
        fill: #1ee6b4;
      }

      .cls-2 {
        fill: #004646;
      }
    </style>
  </defs>
  <g id="Layer_1-2" data-name="Layer 1">
    <g>
      <g>
        <path class="cls-2" d="M47.57,23.39h26.73l47.56,105.7h-25.52l-8.46-20.23h-54.51l-8.3,20.23H0L47.57,23.39ZM79.12,87.57l-18.57-44.54-18.42,44.54h37Z"/>
        <path class="cls-2" d="M132.5,39.09c-2.37-2.31-3.55-5.33-3.55-9.06s1.18-6.77,3.55-9.14,5.66-3.55,9.89-3.55,7.52,1.16,9.89,3.47c2.36,2.32,3.55,5.39,3.55,9.21s-1.19,6.75-3.55,9.06c-2.37,2.32-5.66,3.47-9.89,3.47s-7.53-1.16-9.89-3.47ZM131.07,50.42h22.65v78.67h-22.65V50.42Z"/>
        <path class="cls-2" d="M169.42,50.42h22.65v31.11c2.01-8.76,5.61-15.65,10.8-20.69,5.18-5.03,11.35-9.01,18.5-11.93l4.53,24.31c-7.35,1.91-13.77,3.93-19.25,6.04-5.49,2.11-10.34,4.63-14.57,7.55v42.28h-22.65V50.42Z"/>
        <path class="cls-2" d="M248.09,110.59c6.44,2.26,12.93,3.4,19.48,3.4,5.33,0,9.39-.63,12.16-1.89,2.77-1.26,4.15-3.3,4.15-6.12,0-2.01-.68-3.52-2.04-4.53-1.36-1-3.55-1.71-6.57-2.11l-18.88-2.57c-8.76-1.21-15.3-3.65-19.63-7.32-4.33-3.67-6.49-8.93-6.49-15.78,0-8.05,3.32-14.24,9.97-18.57,6.64-4.33,15.75-6.49,27.33-6.49,5.94,0,11.38.55,16.31,1.66,4.93,1.11,8.86,2.67,11.78,4.68l3.62,21.59c-3.53-3.22-8.03-5.86-13.52-7.93-5.49-2.06-11.25-3.1-17.29-3.1s-10.17.5-12.99,1.51c-2.82,1.01-4.23,2.67-4.23,4.98,0,1.71.65,2.97,1.96,3.78,1.31.81,3.32,1.36,6.04,1.66l20.08,2.57c8.56,1.01,14.97,3.37,19.25,7.1,4.28,3.72,6.42,9.16,6.42,16.31,0,8.66-3.32,15.4-9.97,20.23s-15.5,7.25-26.58,7.25c-13.49,0-24.82-2.67-33.97-8l-3.78-22.05c5.13,4.23,10.92,7.47,17.37,9.74Z"/>
      </g>
      <g>
        <path class="cls-2" d="M97.36,148.81h14.91c2.43,0,4.26.59,5.51,1.77,1.25,1.18,1.87,2.7,1.87,4.57,0,1.33-.33,2.44-.98,3.34-.65.9-1.59,1.53-2.8,1.91,1.03.16,1.91.52,2.66,1.07.75.55,1.32,1.24,1.72,2.08.4.84.59,1.78.59,2.83,0,2.15-.75,3.84-2.24,5.07-1.49,1.24-3.52,1.86-6.09,1.86h-15.16v-24.5ZM113.51,157.74c.55-.47.82-1.1.82-1.89,0-.75-.27-1.34-.81-1.79s-1.34-.67-2.42-.67h-8.43v5.04h8.47c1.03,0,1.81-.23,2.36-.7ZM114.62,167.94c.63-.53.95-1.23.95-2.12s-.33-1.6-.98-2.13c-.65-.54-1.59-.8-2.8-.8h-9.1v5.84h9.24c1.17,0,2.06-.26,2.69-.79Z"/>
        <path class="cls-2" d="M124.75,179.45c-.59-.11-1.13-.26-1.59-.47l-.7-4.62c.84.4,1.78.59,2.83.59.86,0,1.5-.19,1.92-.58s.83-1.07,1.22-2.05l.17-.38-7.38-16.87h5.67l4.55,11.2,4.48-11.2h5.42l-8.05,19.39c-.51,1.28-1.06,2.29-1.63,3.03-.57.74-1.26,1.27-2.06,1.61-.8.34-1.83.51-3.06.51-.61,0-1.21-.05-1.8-.16Z"/>
        <path class="cls-2" d="M159.55,148.81h6.2l11.03,24.5h-5.92l-1.96-4.69h-12.64l-1.92,4.69h-5.81l11.02-24.5ZM166.87,163.69l-4.3-10.33-4.27,10.33h8.58Z"/>
        <path class="cls-2" d="M178.91,147.76l5.25-.67v26.21h-5.25v-25.55Z"/>
        <path class="cls-2" d="M192.28,171.82c-1.21-1.25-1.82-3.09-1.82-5.51v-6.86h-4.27v-4.38h4.27v-5.5l5.21-.7v6.19h7v4.38h-7v6.37c0,1.17.25,2.02.75,2.56.5.54,1.32.8,2.47.8,1.21,0,2.39-.33,3.54-.98l-.7,4.62c-.47.28-1.06.5-1.77.65s-1.52.23-2.43.23c-2.29,0-4.04-.62-5.25-1.87Z"/>
        <path class="cls-2" d="M219.61,173.19c-1.33.36-2.79.54-4.38.54-2.36,0-4.38-.4-6.05-1.21-1.68-.81-2.95-1.93-3.8-3.36s-1.28-3.09-1.28-4.95.41-3.42,1.22-4.87c.82-1.45,2.01-2.59,3.57-3.43,1.56-.84,3.41-1.26,5.53-1.26s3.8.42,5.23,1.24,2.51,1.97,3.24,3.41c.72,1.45,1.08,3.13,1.08,5.04v.91h-16.21v-3.25h12.64l-1.26.88c-.07-.84-.29-1.61-.67-2.31s-.9-1.25-1.59-1.66c-.69-.41-1.54-.61-2.54-.61-1.07,0-2,.25-2.76.73-.77.49-1.35,1.14-1.73,1.94-.38.81-.58,1.71-.58,2.71v.63c0,1.05.25,1.97.74,2.76.49.79,1.22,1.39,2.21,1.8.98.41,2.18.61,3.6.61,1.59,0,3.07-.27,4.46-.82,1.39-.55,2.58-1.3,3.59-2.26l-.98,5.35c-.86.58-1.96,1.06-3.29,1.42Z"/>
        <path class="cls-2" d="M226.61,155.08h5.25v7.21c.47-2.03,1.3-3.63,2.5-4.79,1.2-1.17,2.63-2.09,4.29-2.76l1.05,5.63c-1.7.44-3.19.91-4.46,1.4-1.27.49-2.4,1.07-3.38,1.75v9.8h-5.25v-18.24Z"/>
        <path class="cls-2" d="M241.42,155.08h5.25v4.73c.4-1.7,1.1-2.99,2.12-3.85,1.02-.86,2.42-1.29,4.22-1.29,2.12,0,3.76.65,4.9,1.96,1.14,1.31,1.71,3.04,1.71,5.21v11.48h-5.29v-10.43c0-1.17-.32-2.07-.96-2.71-.64-.64-1.56-.96-2.75-.96-.84,0-1.6.17-2.29.51-.69.34-1.24.81-1.66,1.42v12.18h-5.25v-18.24Z"/>
        <path class="cls-2" d="M262.91,155.08h5.25v10.54c0,1.17.31,2.07.93,2.7.62.63,1.51.95,2.68.95.86,0,1.63-.16,2.31-.49s1.21-.81,1.61-1.44v-12.25h5.29v18.24h-5.29v-5.11c-.4,1.87-1.08,3.25-2.06,4.17-.98.91-2.37,1.37-4.17,1.37-2.12,0-3.75-.65-4.87-1.94s-1.68-3.04-1.68-5.23v-11.48Z"/>
        <path class="cls-2" d="M284.61,155.08h5.25v4.73c.4-1.7,1.1-2.99,2.12-3.85,1.02-.86,2.42-1.29,4.22-1.29,2.12,0,3.76.65,4.9,1.96,1.14,1.31,1.71,3.04,1.71,5.21v11.48h-5.29v-10.43c0-1.17-.32-2.07-.96-2.71-.64-.64-1.56-.96-2.75-.96-.84,0-1.6.17-2.29.51-.69.34-1.24.81-1.66,1.42v12.18h-5.25v-18.24Z"/>
      </g>
      <g>
        <circle class="cls-2" cx="435.03" cy="91.7" r="91.7"/>
        <path class="cls-1" d="M449.29,50.24l.27-.27.04-.04c3.46-3.38,8.21-5.46,13.42-5.46,10.63,0,19.23,8.61,19.23,19.23v56c0,10.62-8.61,19.23-19.23,19.23h-56c-10.62,0-19.23-8.61-19.23-19.23-.03-5.57,2.49-10.99,6.73-14.6l54.77-54.86Z"/>
      </g>
    </g>
  </g>
</svg>