<?xml version="1.0" encoding="UTF-8"?>
<svg id="Layer_2" data-name="Layer 2" xmlns="http://www.w3.org/2000/svg" viewBox="0 0 188.52 188.52">
  <defs>
    <style>
      .cls-1 {
        fill: #fbec90;
      }

      .cls-2 {
        fill: #f8d87b;
      }

      .cls-3 {
        fill: #cbab35;
      }
    </style>
  </defs>
  <g id="Layer_1-2" data-name="Layer 1">
    <circle class="cls-2" cx="94.26" cy="94.26" r="94.26"/>
    <circle class="cls-3" cx="94.26" cy="94.26" r="86.59"/>
    <circle class="cls-1" cx="94.26" cy="94.26" r="71.63"/>
    <path class="cls-3" d="M74.75,128.65c-3.34-1.27-6.36-2.78-9.05-4.52l-2.51-19.62c4.72,3.71,9.75,6.61,15.1,8.72,5.34,2.11,10.81,3.16,16.4,3.16,3.92,0,6.88-.54,8.88-1.64,2-1.09,3-2.8,3-5.12,0-1.74-.78-3.12-2.34-4.14-1.56-1.02-3.69-1.71-6.38-2.07l-12.32-1.63c-7.19-.94-12.72-3.2-16.57-6.76-3.85-3.56-5.78-8.46-5.78-14.72s1.89-11.39,5.67-15.42c3.78-4.03,9.16-6.7,16.13-8.01v-12.75h19.18v12.64c2.98.43,5.7,1.07,8.18,1.91,2.47.84,4.61,1.87,6.43,3.11l2.29,19.62c-2.91-2.54-6.78-4.7-11.61-6.49-4.83-1.78-9.72-2.67-14.66-2.67-4.29,0-7.54.47-9.76,1.42-2.22.95-3.32,2.51-3.32,4.69,0,1.53.6,2.72,1.8,3.6,1.2.87,2.96,1.45,5.29,1.74l12.43,1.42c7.48.87,13.37,3.14,17.66,6.81,4.29,3.67,6.43,8.63,6.43,14.88s-1.87,11.92-5.61,16.13c-3.74,4.22-8.81,7.01-15.21,8.39v13.08h-19.18v-12.86c-3.71-.65-7.23-1.62-10.57-2.89Z"/>
  </g>
</svg>