<?xml version="1.0" encoding="UTF-8"?>
<svg id="Layer_2" data-name="Layer 2" xmlns="http://www.w3.org/2000/svg" viewBox="0 0 231.27 231.27">
  <defs>
    <style>
      .cls-1 {
        fill: #333782;
      }

      .cls-2 {
        fill: #1ee6b4;
      }
    </style>
  </defs>
  <g id="Layer_1-2" data-name="Layer 1">
    <g>
      <circle class="cls-1" cx="115.64" cy="115.64" r="115.64"/>
      <path class="cls-2" d="M167.23,93.65l-29.6-29.6c-1.84-1.84-4.38-2.98-7.19-2.98h-29.6c-2.81,0-5.35,1.14-7.19,2.98h0l-29.6,29.6c-1.84,1.84-2.98,4.38-2.98,7.19v59.21c0,5.61,4.55,10.17,10.17,10.17,1.23,0,2.41-.22,3.49-.62h0s16.56-6.05,16.56-6.05l19.1-6.99,16.5-6.04.06-.02c1.09-.4,2.26-.62,3.49-.62,2.81,0,5.35,1.14,7.19,2.98h0s15.22,14.38,15.22,14.38h0c1.84,1.83,4.38,2.97,7.19,2.97,5.61,0,10.17-4.55,10.17-10.17v-59.21c0-2.81-1.14-5.35-2.98-7.19ZM108.1,137.55l-.14.14-.02.02c-1.83,1.79-4.34,2.89-7.09,2.89-5.62,0-10.17-4.55-10.17-10.17v-29.6c0-5.61,4.55-10.17,10.17-10.17h29.6c5.61,0,10.17,4.55,10.17,10.17.01,2.95-1.31,5.81-3.56,7.72l-28.95,29Z"/>
    </g>
  </g>
</svg>